<svg xmlns="http://www.w3.org/2000/svg" xmlns:xlink="http://www.w3.org/1999/xlink" width="1959" height="1072" viewBox="0 0 1959 1072"><defs><style>.a{fill:rgba(241,241,241,0.62);}.b{font-size:20px;}.b,.f,.g,.h,.i,.y{font-family:SegoeUI, Segoe UI;}.c{fill:#ffd401;}.c,.d,.e,.n{stroke:#ffd401;}.c,.d,.e{stroke-linecap:round;stroke-linejoin:round;stroke-width:3px;}.aa,.ak,.d,.x,.z{fill:none;}.e{fill:#fbe418;}.f,.g,.h,.i{fill:#fa9e02;}.f{font-size:32px;}.g{font-size:77px;}.ab,.h,.u{font-size:19px;}.i{font-size:49px;}.ai,.j{font-size:25px;}.ab,.ac,.j,.s,.t,.u,.v{font-family:SegoeUI-Semibold, Segoe UI;font-weight:600;}.k,.p{fill:#1e8ff2;}.aa,.k,.o,.q{stroke:#1e8ff2;}.l{fill:#aeca02;}.m{fill:#4ab300;stroke:#4ab300;}.n{fill:#fecd05;}.o,.q,.s,.t{fill:#fff;}.o{stroke-width:0.5px;}.r{fill:rgba(30,143,242,0.43);}.ae,.s,.v{font-size:10px;}.t{font-size:21px;}.u,.v{fill:#f1f1f1;}.ah,.ai,.w{fill:#f6f6f6;}.x{stroke:#ebebeb;}.y{fill:#707070;font-size:6px;letter-spacing:0.02em;}.z{stroke:#efefef;}.aa{stroke-miterlimit:10;stroke-width:2px;}.ac{font-size:17px;}.ad{fill:url(#a);}.ae{fill:#2699fb;}.ae,.af,.ah,.ai{font-family:Arial-BoldMT, Arial;font-weight:700;}.af{font-size:30px;}.ag{fill:rgba(30,143,242,0.59);}.ah{font-size:16px;}.aj{stroke:none;}</style><linearGradient id="a" x1="0.5" x2="0.5" y2="1" gradientUnits="objectBoundingBox"><stop offset="0" stop-color="#2699fb"/><stop offset="1" stop-color="#bce0fd"/></linearGradient></defs><g transform="translate(102)"><rect class="a" width="502" height="1072"/><text class="b" transform="translate(65 59)"><tspan x="0" y="0">Dar es salaam, Tanzania</tspan></text><text class="b" transform="translate(317 59)"><tspan x="0" y="0">Today, setp 10</tspan></text><text class="b" transform="translate(186 129)"><tspan x="0" y="0">Tuesday, 12:45</tspan></text><g transform="translate(174.398 161.5)"><path class="c" d="M78.775,44.637A34.137,34.137,0,1,1,44.637,10.5,34.137,34.137,0,0,1,78.775,44.637Z" transform="translate(31.965 31.965)"/><path class="d" d="M18,1.5V15.155" transform="translate(58.602)"/><path class="d" d="M18,31.5V45.155" transform="translate(58.602 106.55)"/><path class="d" d="M6.33,6.33l9.7,9.7" transform="translate(17.155 17.155)"/><path class="e" d="M27.54,27.54l9.7,9.7" transform="translate(92.485 92.485)"/><path class="d" d="M1.5,18H15.155" transform="translate(0 58.602)"/><path class="d" d="M31.5,18H45.155" transform="translate(106.55 58.602)"/><path class="d" d="M6.33,37.235l9.7-9.7" transform="translate(17.155 92.485)"/><path class="d" d="M27.54,16.025l9.7-9.7" transform="translate(92.485 17.155)"/></g><g transform="translate(4 -34)"><text class="f" transform="translate(176 437)"><tspan x="0" y="0">+</tspan></text><text class="g" transform="translate(204 447)"><tspan x="0" y="0">26</tspan></text><text class="h" transform="translate(287 385)"><tspan x="0" y="0">o</tspan></text><text class="i" transform="translate(302 400)"><tspan x="0" y="0">c</tspan></text></g><text class="j" transform="translate(65 518)"><tspan x="0" y="0">Rain Chance</tspan></text><path class="k" d="M20.791,6.771a5.054,5.054,0,0,0-.719.051,7.232,7.232,0,0,0-11.68,0,5.054,5.054,0,0,0-.719-.051,5.1,5.1,0,1,0,0,10.2,5.048,5.048,0,0,0,1.809-.334,7.194,7.194,0,0,0,9.5,0,5.048,5.048,0,0,0,1.809.334,5.1,5.1,0,0,0,0-10.2Zm0,8.746a3.622,3.622,0,0,1-2.093-.668,5.756,5.756,0,0,1-8.934,0,3.643,3.643,0,1,1-.706-6.343,5.786,5.786,0,0,1,10.345,0,3.643,3.643,0,1,1,1.387,7.011Zm-8.017,7.288a1.458,1.458,0,1,0,2.915,0c0-.806-1.458-2.915-1.458-2.915S12.774,22,12.774,22.805Z" transform="translate(308.827 493.737)"/><text class="b" transform="translate(342 513)"><tspan x="0" y="0">12%</tspan></text><path d="M28.539,13.5a2.864,2.864,0,0,0-2.715,3.856H7.331a.964.964,0,1,0,0,1.928H28.539a2.892,2.892,0,1,0,0-5.784ZM7.331,15.424H18.9A2.932,2.932,0,1,0,16.184,13.5H7.331a.964.964,0,1,0,0,1.928Zm15.424,5.784c-.057,0-.111.013-.168.018-.038,0-.069-.018-.107-.018H7.607a1.128,1.128,0,0,0-1.24.964,1.128,1.128,0,0,0,1.24.964H20.04a2.885,2.885,0,1,0,2.715-1.928Z" transform="translate(310.569 558.36)"/><text class="b" transform="translate(349 583)"><tspan x="0" y="0">24.3 km/h</tspan></text><text class="j" transform="translate(65 579)"><tspan x="0" y="0">Wind Speed</tspan></text><text class="j" transform="translate(65 642)"><tspan x="0" y="0">Humidity</tspan></text><path class="l" d="M9.072,20.628a9.555,9.555,0,0,1,.864-3.636,20.415,20.415,0,0,1,2.232-3.972,43.687,43.687,0,0,1,4.872-5.6l.9-.864a7.682,7.682,0,0,0,1,.864c.492.5,1.248,1.332,2.256,2.508s1.884,2.22,2.6,3.18A21.322,21.322,0,0,1,25.968,17a9.512,9.512,0,0,1,.888,3.636,8.6,8.6,0,0,1-.7,3.432,8.918,8.918,0,0,1-8.22,5.436,8.8,8.8,0,0,1-3.432-.684,8.671,8.671,0,0,1-2.832-1.86,8.939,8.939,0,0,1-2.6-6.336Zm2.712-3.516a4.077,4.077,0,0,0,.624,2.388,2.193,2.193,0,0,0,1.908.888,2.238,2.238,0,0,0,1.932-.888,4.114,4.114,0,0,0,.648-2.388,4.182,4.182,0,0,0-.648-2.4,2.223,2.223,0,0,0-1.932-.888,2.193,2.193,0,0,0-1.908.888A4.092,4.092,0,0,0,11.784,17.112Zm1.884,0v-.42c0-.1.012-.228.024-.4a1.348,1.348,0,0,1,.06-.384c.036-.084.06-.192.108-.288a.471.471,0,0,1,.18-.216.526.526,0,0,1,.276-.072.535.535,0,0,1,.4.144.85.85,0,0,1,.2.456c.036.216.06.384.072.54s.012.36.012.624,0,.48-.012.624-.036.324-.072.54a.85.85,0,0,1-.2.456.535.535,0,0,1-.4.144.526.526,0,0,1-.276-.072.4.4,0,0,1-.18-.216,1.727,1.727,0,0,1-.108-.288,2.359,2.359,0,0,1-.06-.384c-.012-.168-.024-.3-.024-.384S13.668,17.292,13.668,17.112Zm.708,9.3H15.96l5.988-12.888h-1.62Zm5.16-3.588a4.182,4.182,0,0,0,.66,2.4,2.215,2.215,0,0,0,1.92.888,2.2,2.2,0,0,0,1.92-.888,4.155,4.155,0,0,0,.636-2.4,4.114,4.114,0,0,0-.636-2.388,2.2,2.2,0,0,0-1.92-.888,2.215,2.215,0,0,0-1.92.888A4.027,4.027,0,0,0,19.536,22.824Zm1.884,0c0-.276,0-.48.012-.624s.036-.324.072-.54a.809.809,0,0,1,.2-.456.535.535,0,0,1,.4-.144.57.57,0,0,1,.288.072.459.459,0,0,1,.192.228c.048.108.084.2.12.288a1.348,1.348,0,0,1,.06.384l.012.384v.828l-.012.384-.06.384-.12.288-.192.228L22.1,24.6a.535.535,0,0,1-.4-.144A.85.85,0,0,1,21.5,24q-.054-.324-.072-.54C21.42,23.316,21.42,23.1,21.42,22.824Z" transform="translate(311.036 605.492)"/><text class="b" transform="translate(347 634)"><tspan x="0" y="0">63%</tspan></text><text class="j" transform="translate(70 705)"><tspan x="0" y="0">Pressure</tspan></text><g class="m" transform="translate(317 685)"><circle class="aj" cx="9" cy="9" r="9"/><circle class="ak" cx="9" cy="9" r="8.5"/></g><text class="b" transform="translate(349 700)"><tspan x="0" y="0">1016 mb</tspan></text><text class="j" transform="translate(65 768)"><tspan x="0" y="0">Uv Index</tspan></text><g class="n" transform="translate(317 747)"><circle class="aj" cx="9" cy="9" r="9"/><circle class="ak" cx="9" cy="9" r="8.5"/></g><text class="b" transform="translate(348 765)"><tspan x="0" y="0">5</tspan></text><g transform="translate(-66 -25)"><g class="o" transform="translate(713 58)"><rect class="aj" width="853" height="54" rx="13"/><rect class="ak" x="0.25" y="0.25" width="852.5" height="53.5" rx="12.75"/></g><path class="p" d="M27.861,24.424l-5.5-5.5a1.323,1.323,0,0,0-.938-.386h-.9a11.47,11.47,0,1,0-1.986,1.986v.9a1.323,1.323,0,0,0,.386.938l5.5,5.5a1.319,1.319,0,0,0,1.87,0L27.856,26.3a1.33,1.33,0,0,0,.006-1.876ZM11.476,18.537a7.062,7.062,0,1,1,7.062-7.062A7.058,7.058,0,0,1,11.476,18.537Z" transform="translate(725.4 70)"/></g><g transform="translate(-143 -14)"><g class="q" transform="translate(1672 52)"><rect class="aj" width="52" height="49" rx="14"/><rect class="ak" x="0.5" y="0.5" width="51" height="48" rx="13.5"/></g><path class="p" d="M14.837,9.987a4.85,4.85,0,1,0,4.85,4.85A4.848,4.848,0,0,0,14.837,9.987Zm10.839,3.637A10.9,10.9,0,0,0,16.049,4V1.5H13.624V4A10.9,10.9,0,0,0,4,13.624H1.5v2.425H4a10.9,10.9,0,0,0,9.627,9.627v2.5h2.425v-2.5a10.9,10.9,0,0,0,9.627-9.627h2.5V13.624Zm-10.839,9.7a8.487,8.487,0,1,1,8.487-8.487A8.481,8.481,0,0,1,14.837,23.324Z" transform="translate(1683.163 61.5)"/></g><g transform="translate(-48 -5)"><g transform="translate(4 -73)"><g transform="translate(2 -1)"><ellipse class="p" cx="21" cy="18" rx="21" ry="18" transform="translate(1699 122)"/></g></g><g transform="translate(2 -75)"><rect class="r" width="95" height="36" rx="18" transform="translate(1703 123)"/><g transform="translate(61 42)"><text class="s" transform="translate(1664 91)"><tspan x="0" y="0">o</tspan></text><text class="t" transform="translate(1650 106)"><tspan x="0" y="0">C</tspan></text></g><g transform="translate(68 44)"><text class="u" transform="translate(1692 105)"><tspan x="0" y="0">F</tspan></text><text class="v" transform="translate(1702 90)"><tspan x="0" y="0">o</tspan></text></g></g></g><rect class="w" width="453" height="327" rx="48" transform="translate(550 163)"/><g transform="translate(-175.078 -534.69)"><g transform="translate(781.544 759.219)"><line class="x" y2="192.685"/><line class="x" x2="361.853" transform="translate(0 192.685)"/><line class="x" x2="361.853" transform="translate(0 160.571)"/><line class="x" x2="361.853" transform="translate(0 128.457)"/><line class="x" x2="361.853" transform="translate(0 96.343)"/><line class="x" x2="361.853" transform="translate(0 64.228)"/><line class="x" x2="361.853" transform="translate(0 32.114)"/><line class="x" x2="361.853"/></g><text class="y" transform="translate(773.078 965.69)"><tspan x="0" y="0">00</tspan></text><text class="y" transform="translate(826.078 965.69)"><tspan x="0" y="0">01</tspan></text><text class="y" transform="translate(871.078 965.69)"><tspan x="0" y="0">01</tspan></text><text class="y" transform="translate(921.078 965.69)"><tspan x="0" y="0">03</tspan></text><text class="y" transform="translate(976.078 965.69)"><tspan x="0" y="0">04</tspan></text><text class="y" transform="translate(1031.078 965.69)"><tspan x="0" y="0">05</tspan></text><text class="y" transform="translate(1085.078 965.69)"><tspan x="0" y="0">06</tspan></text><text class="y" transform="translate(1129.078 965.69)"><tspan x="0" y="0">07</tspan></text><g transform="translate(778.982 768.69)"><ellipse class="p" cx="4" cy="3.5" rx="4" ry="3.5" transform="translate(359.096 124)"/><circle class="p" cx="3" cy="3" r="3" transform="translate(292.096 81)"/><ellipse class="p" cx="2" cy="2.5" rx="2" ry="2.5" transform="translate(180.096 43)"/><circle class="p" cx="4" cy="4" r="4" transform="translate(267.096 45)"/><path class="p" d="M4,0A3.775,3.775,0,0,1,8,3.5,3.775,3.775,0,0,1,4,7,3.775,3.775,0,0,1,0,3.5,3.775,3.775,0,0,1,4,0Z" transform="translate(28.096 68)"/><path class="p" d="M4,0A3.775,3.775,0,0,1,8,3.5,3.775,3.775,0,0,1,4,7,3.775,3.775,0,0,1,0,3.5,3.775,3.775,0,0,1,4,0Z" transform="translate(87.096 68)"/><path class="p" d="M4,0A3.775,3.775,0,0,1,8,3.5,3.775,3.775,0,0,1,4,7,3.775,3.775,0,0,1,0,3.5,3.775,3.775,0,0,1,4,0Z" transform="translate(51.096 38)"/><ellipse class="p" cx="3.5" cy="4" rx="3.5" ry="4" transform="translate(-0.904 95)"/></g><line class="z" x2="439" transform="translate(735.078 731.69)"/><line class="z" x2="439" transform="translate(735.078 991.69)"/><path class="aa" d="M221.04,936.131s8.062-28.144,27.675-28.144c9.63,0,15.174-33.965,29.082-27.675,12.474,5.643,24.324,32.55,34.242,31.013.916-.142,15.905-5.12,16.886-5.215,8.9-.862,19.254,1.784,29.082,0,9-1.634,30.739-22.776,40.339-22.984,19.512-.424,20.587,11.305,36.118,11.727s36.049-8.956,53.57-8.537c11.178.268,15.21,25.478,24.2,32.928,4.741,3.928,14.209-8.155,19.972-7.919,15.922.652,38.527,41.346,51.37,55.128" transform="translate(559.91 -68.631)"/></g><g transform="translate(151 -13)"><text class="ab" transform="translate(659 205)"><tspan x="0" y="0">Temperature , C</tspan></text><text class="ac" transform="translate(795 193)"><tspan x="0" y="0">o</tspan></text></g><text class="ab" transform="translate(595 189)"><tspan x="0" y="0">Hourly </tspan></text><rect class="w" width="648" height="327" rx="41" transform="translate(1104 150)"/><g transform="translate(1186.678 125.576)"><g transform="translate(16.322 126.424)"><rect class="ad" width="39" height="164"/><rect class="ad" width="40" height="140" transform="translate(67 24)"/><rect class="ad" width="41" height="128" transform="translate(133 36)"/><rect class="ad" width="40" height="73" transform="translate(200 91)"/><rect class="ad" width="41" height="105" transform="translate(266 59)"/><rect class="ad" width="40" height="78" transform="translate(401 86)"/><rect class="ad" width="40" height="164" transform="translate(334)"/><text class="ae" transform="translate(15 181)"><tspan x="-10.273" y="0">Mon</tspan></text><text class="ae" transform="translate(83 181)"><tspan x="-11.299" y="0">Tues</tspan></text><text class="ae" transform="translate(150 181)"><tspan x="-10.464" y="0">Wed</tspan></text><text class="ae" transform="translate(216 181)"><tspan x="-11.108" y="0">Thur</tspan></text><text class="ae" transform="translate(283 181)"><tspan x="-6.389" y="0">Fri</tspan></text><text class="ae" transform="translate(350 181)"><tspan x="-7.781" y="0">Sat</tspan></text><text class="ae" transform="translate(417 181)"><tspan x="-9.443" y="0">Sun</tspan></text></g></g><g transform="translate(900 -13)"><text class="ab" transform="translate(659 205)"><tspan x="0" y="0">Temperature , C</tspan></text><text class="ac" transform="translate(795 193)"><tspan x="0" y="0">o</tspan></text></g><text class="ab" transform="translate(1160 188)"><tspan x="0" y="0">5 Day </tspan></text><text class="af" transform="translate(601 592)"><tspan x="-62.527" y="0">Forecast</tspan></text><g transform="translate(-41 7)"><rect class="ag" width="252" height="416" rx="39" transform="translate(566 612)"/><text class="ah" transform="translate(622 656)"><tspan x="-28.895" y="0">Sunday</tspan></text><text class="ah" transform="translate(732 656)"><tspan x="-44.926" y="0">03 sep 2023</tspan></text><path class="w" d="M92.906,41.039A14.553,14.553,0,0,0,78.62,29.119a14.374,14.374,0,0,0-6.242,1.456A17.438,17.438,0,0,0,40.766,40.766c0,.091.036.2.036.291a14.557,14.557,0,0,0,2.875,28.827h46.59a14.542,14.542,0,0,0,2.639-28.846ZM22.585,47.3A17.428,17.428,0,0,1,45.643,21.238a23.135,23.135,0,0,1,12.594-3.767c.127,0,.237.036.364.036l1.62-4.859a2.363,2.363,0,0,0-3-2.985l-13.7,4.568L37.053,1.31a2.37,2.37,0,0,0-4.24,0L26.352,14.232l-13.7-4.568a2.363,2.363,0,0,0-2.985,3l4.568,13.7L1.31,32.831a2.37,2.37,0,0,0,0,4.24l12.921,6.461-4.568,13.7a2.378,2.378,0,0,0,3,3L23.44,56.654c-.036-.437-.127-.855-.127-1.31a20.114,20.114,0,0,1,1.128-6.533A16.783,16.783,0,0,1,22.585,47.3Zm12.7-10.555A23.208,23.208,0,0,1,41.094,25.1a11.489,11.489,0,0,0-6.151-1.8A11.658,11.658,0,0,0,23.295,34.942a11.538,11.538,0,0,0,3.84,8.572A20.408,20.408,0,0,1,35.288,36.744ZM95.454,76.09a2.905,2.905,0,0,0-3.967,1.092L84.826,88.83A2.9,2.9,0,0,0,85.918,92.8a2.9,2.9,0,0,0,3.967-1.092l6.661-11.647A2.917,2.917,0,0,0,95.454,76.09Zm-17.471,0a2.905,2.905,0,0,0-3.967,1.092L67.355,88.83A2.9,2.9,0,0,0,68.447,92.8a2.9,2.9,0,0,0,3.967-1.092L76.8,84.031l2.272-3.973a2.917,2.917,0,0,0-1.092-3.967Zm-17.471,0a2.905,2.905,0,0,0-3.967,1.092L49.884,88.83A2.9,2.9,0,0,0,50.976,92.8a2.9,2.9,0,0,0,3.967-1.092L61.6,80.058a2.917,2.917,0,0,0-1.092-3.967Zm-17.471,0a2.905,2.905,0,0,0-3.967,1.092L32.413,88.83A2.9,2.9,0,0,0,33.5,92.8a2.9,2.9,0,0,0,3.967-1.092l6.661-11.647A2.917,2.917,0,0,0,43.041,76.09Z" transform="translate(622 690.255)"/><g transform="translate(437 461)"><text class="f" transform="translate(176 437)"><tspan x="0" y="0">+</tspan></text><text class="g" transform="translate(204 447)"><tspan x="0" y="0">26</tspan></text><text class="h" transform="translate(287 385)"><tspan x="0" y="0">o</tspan></text><text class="i" transform="translate(302 400)"><tspan x="0" y="0">c</tspan></text></g><text class="ai" transform="translate(687 956)"><tspan x="-74.792" y="0">Temperature</tspan></text></g><g transform="translate(232 7)"><rect class="ag" width="252" height="416" rx="39" transform="translate(566 612)"/><text class="ah" transform="translate(622 656)"><tspan x="-28.895" y="0">Sunday</tspan></text><text class="ah" transform="translate(732 656)"><tspan x="-44.926" y="0">03 sep 2023</tspan></text><g transform="translate(437 461)"><text class="f" transform="translate(176 437)"><tspan x="0" y="0">+</tspan></text><text class="g" transform="translate(204 447)"><tspan x="0" y="0">32</tspan></text><text class="h" transform="translate(287 385)"><tspan x="0" y="0">o</tspan></text><text class="i" transform="translate(302 400)"><tspan x="0" y="0">c</tspan></text></g><text class="ai" transform="translate(687 956)"><tspan x="-74.792" y="0">Temperature</tspan></text></g><g transform="translate(505 7)"><rect class="ag" width="252" height="416" rx="39" transform="translate(566 612)"/><text class="ah" transform="translate(622 656)"><tspan x="-28.895" y="0">Sunday</tspan></text><text class="ah" transform="translate(732 656)"><tspan x="-44.926" y="0">03 sep 2023</tspan></text><g transform="translate(437 461)"><text class="f" transform="translate(176 437)"><tspan x="0" y="0">+</tspan></text><text class="g" transform="translate(204 447)"><tspan x="0" y="0">15</tspan></text><text class="h" transform="translate(287 385)"><tspan x="0" y="0">o</tspan></text><text class="i" transform="translate(302 400)"><tspan x="0" y="0">c</tspan></text></g><text class="ai" transform="translate(687 956)"><tspan x="-74.792" y="0">Temperature</tspan></text><path class="w" d="M68.756,21.156c-.1,0-.182.033-.264.033a12.907,12.907,0,0,0,.264-2.678,13.169,13.169,0,0,0-23.3-8.462,18.448,18.448,0,0,0-34.874,8.462,18.8,18.8,0,0,0,.347,3.5,15.826,15.826,0,0,0,4.942,30.874H68.756a15.867,15.867,0,1,0,0-31.733ZM14.544,61.847c-2.116,7.338-6.611,9.322-6.611,14.495a8.11,8.11,0,0,0,7.933,8.28,8.11,8.11,0,0,0,7.933-8.28c0-5.19-4.5-7.123-6.611-14.495A1.364,1.364,0,0,0,14.544,61.847Zm26.444,0c-2.116,7.338-6.611,9.322-6.611,14.495a7.941,7.941,0,1,0,15.867,0c0-5.19-4.5-7.123-6.611-14.495A1.364,1.364,0,0,0,40.989,61.847Zm26.444,0c-2.116,7.338-6.611,9.322-6.611,14.495a7.941,7.941,0,1,0,15.867,0c0-5.19-4.5-7.123-6.611-14.495A1.364,1.364,0,0,0,67.433,61.847Z" transform="translate(649.689 683.844)"/></g><g transform="translate(778 7)"><rect class="ag" width="252" height="416" rx="39" transform="translate(566 612)"/><text class="ah" transform="translate(622 656)"><tspan x="-28.895" y="0">Sunday</tspan></text><text class="ah" transform="translate(732 656)"><tspan x="-44.926" y="0">03 sep 2023</tspan></text><g transform="translate(437 461)"><text class="f" transform="translate(176 437)"><tspan x="0" y="0">+</tspan></text><text class="g" transform="translate(204 447)"><tspan x="0" y="0">27</tspan></text><text class="h" transform="translate(287 385)"><tspan x="0" y="0">o</tspan></text><text class="i" transform="translate(302 400)"><tspan x="0" y="0">c</tspan></text></g><text class="ai" transform="translate(687 956)"><tspan x="-74.792" y="0">Temperature</tspan></text><path class="w" d="M83.134,47.074a7.794,7.794,0,0,0,.116-.809,9.222,9.222,0,0,0-14.179-7.8,16.168,16.168,0,0,0-30.915,6.648c0,.434.1.838.13,1.257a13.842,13.842,0,0,0,1.026,27.649H78.625a13.842,13.842,0,0,0,4.509-26.941ZM20.928,43.807A16.184,16.184,0,1,1,47.045,25.654a20.74,20.74,0,0,1,4.437-1.084l4.307-12.849a2.192,2.192,0,0,0-2.775-2.775l-12.69,4.235-6-11.967a2.187,2.187,0,0,0-3.917,0L24.426,13.181l-12.7-4.235a2.2,2.2,0,0,0-2.775,2.775l4.235,12.69-11.967,6a2.187,2.187,0,0,0,0,3.917L13.181,40.31,8.946,53a2.192,2.192,0,0,0,2.775,2.775l11-3.657a18.679,18.679,0,0,1,3.411-4.842,15.937,15.937,0,0,1-5.2-3.469Zm-.694-11.447a12.141,12.141,0,0,0,9.814,11.895,18.542,18.542,0,0,1,3.642-1.691,20.832,20.832,0,0,1,9.741-15.176,12.133,12.133,0,0,0-23.2,4.972Z" transform="translate(651 680.841)"/></g><g transform="translate(1043.547 7)"><rect class="ag" width="247" height="416" rx="39" transform="translate(566.453 612)"/><text class="ah" transform="translate(622.453 656)"><tspan x="-28.895" y="0">Sunday</tspan></text><text class="ah" transform="translate(728.453 656)"><tspan x="-44.926" y="0">03 sep 2023</tspan></text><path class="w" d="M92.906,41.039A14.553,14.553,0,0,0,78.62,29.119a14.374,14.374,0,0,0-6.242,1.456A17.438,17.438,0,0,0,40.766,40.766c0,.091.036.2.036.291a14.557,14.557,0,0,0,2.875,28.827h46.59a14.542,14.542,0,0,0,2.639-28.846ZM22.585,47.3A17.428,17.428,0,0,1,45.643,21.238a23.135,23.135,0,0,1,12.594-3.767c.127,0,.237.036.364.036l1.62-4.859a2.363,2.363,0,0,0-3-2.985l-13.7,4.568L37.053,1.31a2.37,2.37,0,0,0-4.24,0L26.352,14.232l-13.7-4.568a2.363,2.363,0,0,0-2.985,3l4.568,13.7L1.31,32.831a2.37,2.37,0,0,0,0,4.24l12.921,6.461-4.568,13.7a2.378,2.378,0,0,0,3,3L23.44,56.654c-.036-.437-.127-.855-.127-1.31a20.114,20.114,0,0,1,1.128-6.533A16.783,16.783,0,0,1,22.585,47.3Zm12.7-10.555A23.208,23.208,0,0,1,41.094,25.1a11.489,11.489,0,0,0-6.151-1.8A11.658,11.658,0,0,0,23.295,34.942a11.538,11.538,0,0,0,3.84,8.572A20.408,20.408,0,0,1,35.288,36.744ZM95.454,76.09a2.905,2.905,0,0,0-3.967,1.092L84.826,88.83A2.9,2.9,0,0,0,85.918,92.8a2.9,2.9,0,0,0,3.967-1.092l6.661-11.647A2.917,2.917,0,0,0,95.454,76.09Zm-17.471,0a2.905,2.905,0,0,0-3.967,1.092L67.355,88.83A2.9,2.9,0,0,0,68.447,92.8a2.9,2.9,0,0,0,3.967-1.092L76.8,84.031l2.272-3.973a2.917,2.917,0,0,0-1.092-3.967Zm-17.471,0a2.905,2.905,0,0,0-3.967,1.092L49.884,88.83A2.9,2.9,0,0,0,50.976,92.8a2.9,2.9,0,0,0,3.967-1.092L61.6,80.058a2.917,2.917,0,0,0-1.092-3.967Zm-17.471,0a2.905,2.905,0,0,0-3.967,1.092L32.413,88.83A2.9,2.9,0,0,0,33.5,92.8a2.9,2.9,0,0,0,3.967-1.092l6.661-11.647A2.917,2.917,0,0,0,43.041,76.09Z" transform="translate(620.212 690.255)"/><g transform="translate(610.358 808)"><text class="f" transform="translate(0.095 90)"><tspan x="0" y="0">+</tspan></text><text class="g" transform="translate(28.095 100)"><tspan x="0" y="0">28</tspan></text><text class="h" transform="translate(111.095 38)"><tspan x="0" y="0">o</tspan></text><text class="i" transform="translate(126.095 53)"><tspan x="0" y="0">c</tspan></text></g><text class="ai" transform="translate(685.453 956)"><tspan x="-74.792" y="0">Temperature</tspan></text></g><path class="w" d="M94.892,53.731a8.9,8.9,0,0,0,.132-.924A10.526,10.526,0,0,0,78.84,43.9a18.455,18.455,0,0,0-35.287,7.589c0,.495.115.957.148,1.435a15.8,15.8,0,0,0,1.171,31.559H89.745a15.8,15.8,0,0,0,5.147-30.751ZM23.888,50A18.473,18.473,0,1,1,53.7,29.282a23.673,23.673,0,0,1,5.065-1.237l4.916-14.666a2.5,2.5,0,0,0-3.167-3.167L46.027,15.045,39.181,1.386a2.5,2.5,0,0,0-4.471,0l-6.83,13.66-14.5-4.834a2.513,2.513,0,0,0-3.167,3.167l4.834,14.485L1.386,34.71a2.5,2.5,0,0,0,0,4.471l13.66,6.83L10.212,60.5a2.5,2.5,0,0,0,3.167,3.167l12.554-4.174a21.32,21.32,0,0,1,3.893-5.527A18.191,18.191,0,0,1,23.888,50ZM23.1,36.937A13.858,13.858,0,0,0,34.3,50.514a21.164,21.164,0,0,1,4.157-1.93A23.779,23.779,0,0,1,49.574,31.262,13.849,13.849,0,0,0,23.1,36.937Z" transform="translate(851 689.518)"/><path d="M32.395,15.364H27.477a8.641,8.641,0,0,0-15.786-3.856H5.4a.964.964,0,1,0,0,1.928h5.352a8.558,8.558,0,0,0-.434,1.928H7.331a.964.964,0,1,0,0,1.928h2.99a8.558,8.558,0,0,0,.434,1.928H5.578a.978.978,0,1,0,0,1.928h6.113a8.664,8.664,0,0,0,14.415,0h2.257a.978.978,0,1,0,0-1.928H27.043a8.627,8.627,0,0,0,.434-1.928h4.918a.964.964,0,0,0,0-1.928ZM12.827,13.436H18.9a.964.964,0,0,0,0-1.928H14.19a6.714,6.714,0,0,1,11.359,3.856h-13.3a6.629,6.629,0,0,1,.579-1.928Zm6.072,9.64a6.726,6.726,0,0,1-4.708-1.928h9.415A6.721,6.721,0,0,1,18.9,23.076Zm6.07-3.856H12.827a6.629,6.629,0,0,1-.579-1.928h13.3a6.592,6.592,0,0,1-.58,1.928Z" transform="translate(-106.438 34.172)"/></g></svg>