<svg xmlns="http://www.w3.org/2000/svg" width="104.827" height="93.179" viewBox="0 0 104.827 93.179"><defs><style>.a{fill:#f6f6f6;}</style></defs><path class="a" d="M92.906,41.039A14.553,14.553,0,0,0,78.62,29.119a14.374,14.374,0,0,0-6.242,1.456A17.438,17.438,0,0,0,40.766,40.766c0,.091.036.2.036.291a14.557,14.557,0,0,0,2.875,28.827h46.59a14.542,14.542,0,0,0,2.639-28.846ZM22.585,47.3A17.428,17.428,0,0,1,45.643,21.238a23.135,23.135,0,0,1,12.594-3.767c.127,0,.237.036.364.036l1.62-4.859a2.363,2.363,0,0,0-3-2.985l-13.7,4.568L37.053,1.31a2.37,2.37,0,0,0-4.24,0L26.352,14.232l-13.7-4.568a2.363,2.363,0,0,0-2.985,3l4.568,13.7L1.31,32.831a2.37,2.37,0,0,0,0,4.24l12.921,6.461-4.568,13.7a2.378,2.378,0,0,0,3,3L23.44,56.654c-.036-.437-.127-.855-.127-1.31a20.114,20.114,0,0,1,1.128-6.533A16.783,16.783,0,0,1,22.585,47.3Zm12.7-10.555A23.208,23.208,0,0,1,41.094,25.1a11.489,11.489,0,0,0-6.151-1.8A11.658,11.658,0,0,0,23.295,34.942a11.538,11.538,0,0,0,3.84,8.572A20.408,20.408,0,0,1,35.288,36.744ZM95.454,76.09a2.905,2.905,0,0,0-3.967,1.092L84.826,88.83A2.9,2.9,0,0,0,85.918,92.8a2.9,2.9,0,0,0,3.967-1.092l6.661-11.647A2.917,2.917,0,0,0,95.454,76.09Zm-17.471,0a2.905,2.905,0,0,0-3.967,1.092L67.355,88.83A2.9,2.9,0,0,0,68.447,92.8a2.9,2.9,0,0,0,3.967-1.092L76.8,84.031l2.272-3.973a2.917,2.917,0,0,0-1.092-3.967Zm-17.471,0a2.905,2.905,0,0,0-3.967,1.092L49.884,88.83A2.9,2.9,0,0,0,50.976,92.8a2.9,2.9,0,0,0,3.967-1.092L61.6,80.058a2.917,2.917,0,0,0-1.092-3.967Zm-17.471,0a2.905,2.905,0,0,0-3.967,1.092L32.413,88.83A2.9,2.9,0,0,0,33.5,92.8a2.9,2.9,0,0,0,3.967-1.092l6.661-11.647A2.917,2.917,0,0,0,43.041,76.09Z"/></svg>