<svg xmlns="http://www.w3.org/2000/svg" width="105.582" height="84.482" viewBox="0 0 105.582 84.482"><defs><style>.a{fill:#f6f6f6;}</style></defs><path class="a" d="M94.892,53.731a8.9,8.9,0,0,0,.132-.924A10.526,10.526,0,0,0,78.84,43.9a18.455,18.455,0,0,0-35.287,7.589c0,.495.115.957.148,1.435a15.8,15.8,0,0,0,1.171,31.559H89.745a15.8,15.8,0,0,0,5.147-30.751ZM23.888,50A18.473,18.473,0,1,1,53.7,29.282a23.673,23.673,0,0,1,5.065-1.237l4.916-14.666a2.5,2.5,0,0,0-3.167-3.167L46.027,15.045,39.181,1.386a2.5,2.5,0,0,0-4.471,0l-6.83,13.66-14.5-4.834a2.513,2.513,0,0,0-3.167,3.167l4.834,14.485L1.386,34.71a2.5,2.5,0,0,0,0,4.471l13.66,6.83L10.212,60.5a2.5,2.5,0,0,0,3.167,3.167l12.554-4.174a21.32,21.32,0,0,1,3.893-5.527A18.191,18.191,0,0,1,23.888,50ZM23.1,36.937A13.858,13.858,0,0,0,34.3,50.514a21.164,21.164,0,0,1,4.157-1.93A23.779,23.779,0,0,1,49.574,31.262,13.849,13.849,0,0,0,23.1,36.937Z"/></svg>