<svg xmlns="http://www.w3.org/2000/svg" width="153.205" height="153.205" viewBox="0 0 153.205 153.205"><defs><style>.a{fill:#ffd401;}.a,.b,.c{stroke:#ffd401;stroke-linecap:round;stroke-linejoin:round;stroke-width:3px;}.b{fill:none;}.c{fill:#fbe418;}</style></defs><path class="a" d="M78.775,44.637A34.137,34.137,0,1,1,44.637,10.5,34.137,34.137,0,0,1,78.775,44.637Z" transform="translate(31.965 31.965)"/><path class="b" d="M18,1.5V15.155" transform="translate(58.602)"/><path class="b" d="M18,31.5V45.155" transform="translate(58.602 106.55)"/><path class="b" d="M6.33,6.33l9.7,9.7" transform="translate(17.155 17.155)"/><path class="c" d="M27.54,27.54l9.7,9.7" transform="translate(92.485 92.485)"/><path class="b" d="M1.5,18H15.155" transform="translate(0 58.602)"/><path class="b" d="M31.5,18H45.155" transform="translate(106.55 58.602)"/><path class="b" d="M6.33,37.235l9.7-9.7" transform="translate(17.155 92.485)"/><path class="b" d="M27.54,16.025l9.7-9.7" transform="translate(92.485 17.155)"/></svg>