<svg xmlns="http://www.w3.org/2000/svg" width="26.673" height="26.673" viewBox="0 0 26.673 26.673"><defs><style>.a{fill:#1e8ff2;}</style></defs><path class="a" d="M14.837,9.987a4.85,4.85,0,1,0,4.85,4.85A4.848,4.848,0,0,0,14.837,9.987Zm10.839,3.637A10.9,10.9,0,0,0,16.049,4V1.5H13.624V4A10.9,10.9,0,0,0,4,13.624H1.5v2.425H4a10.9,10.9,0,0,0,9.627,9.627v2.5h2.425v-2.5a10.9,10.9,0,0,0,9.627-9.627h2.5V13.624Zm-10.839,9.7a8.487,8.487,0,1,1,8.487-8.487A8.481,8.481,0,0,1,14.837,23.324Z" transform="translate(-1.5 -1.5)"/></svg>