<svg xmlns="http://www.w3.org/2000/svg" width="24.322" height="21.407" viewBox="0 0 24.322 21.407"><defs><style>.a{fill:#1e8ff2;stroke:#1e8ff2;}</style></defs><path class="a" d="M20.791,6.771a5.054,5.054,0,0,0-.719.051,7.232,7.232,0,0,0-11.68,0,5.054,5.054,0,0,0-.719-.051,5.1,5.1,0,1,0,0,10.2,5.048,5.048,0,0,0,1.809-.334,7.194,7.194,0,0,0,9.5,0,5.048,5.048,0,0,0,1.809.334,5.1,5.1,0,0,0,0-10.2Zm0,8.746a3.622,3.622,0,0,1-2.093-.668,5.756,5.756,0,0,1-8.934,0,3.643,3.643,0,1,1-.706-6.343,5.786,5.786,0,0,1,10.345,0,3.643,3.643,0,1,1,1.387,7.011Zm-8.017,7.288a1.458,1.458,0,1,0,2.915,0c0-.806-1.458-2.915-1.458-2.915S12.774,22,12.774,22.805Z" transform="translate(-2.071 -3.356)"/></svg>